<svg height="225" viewBox="0 0 424 225" width="424" xmlns="http://www.w3.org/2000/svg" xmlns:xlink="http://www.w3.org/1999/xlink"><defs><filter id="a" height="107.2%" width="103.8%" x="-1.9%" y="-3.6%"><feOffset dx="0" dy="2" in="SourceAlpha" result="shadowOffsetOuter1"/><feGaussianBlur in="shadowOffsetOuter1" result="shadowBlurOuter1" stdDeviation="1"/><feColorMatrix in="shadowBlurOuter1" result="shadowMatrixOuter1" type="matrix" values="0 0 0 0 0   0 0 0 0 0   0 0 0 0 0  0 0 0 0.1 0"/><feMerge><feMergeNode in="shadowMatrixOuter1"/><feMergeNode in="SourceGraphic"/></feMerge></filter><linearGradient id="b" x1="50%" x2="50%" y1="0%" y2="100%"><stop offset="0" stop-color="#757575"/><stop offset="1" stop-color="#3d3d3d"/></linearGradient><linearGradient id="c" x1="100%" x2=".849873%" y1="100%" y2="100%"><stop offset="0" stop-color="#a1a1a1"/><stop offset=".146352407" stop-color="#e0e0e0"/><stop offset=".839157517" stop-color="#e0e0e0"/><stop offset="1" stop-color="#a1a1a1"/></linearGradient><linearGradient id="d" x1="50%" x2="50%" y1="0%" y2="100%"><stop offset="0" stop-color="#1c1f24"/><stop offset="1" stop-color="#1c1f24"/></linearGradient><filter id="e" height="100%" width="100%" x="0%" y="0%"><feGaussianBlur in="SourceGraphic" stdDeviation="0"/></filter><path id="f" d="m54.1028624 90.483564 49.4404606-58.1838346c.791715-.9317275.876964-2.2729956.209582-3.2974615l-12.0161688-18.4454309c-.1971191-.3025879-.4788307-.5405621-.8101084-.68433446l-22.39717-9.72022413c-.2314497-.10044767-.4810669-.15227841-.7333737-.15227841h-31.8351716c-.2616065 0-.5202126.05572103-.7586061.16345444l-21.4745294 9.70464413c-.3246875.14673083-.5998538.38447523-.7921583.68442673l-11.84163331 18.4702662c-.65112188 1.0156027-.56809047 2.3362277.20510868 3.2622793l48.57708963 58.1802134c.9780649 1.171417 2.7205641 1.3281597 3.8919811.3500948.1208122-.1008711.2327852-.2118798.3346976-.331815z"/><mask id="g" fill="#fff"><rect fill="#fff" fill-rule="evenodd" height="174.473684" rx="2.324723" width="281.291513" x="69.741697" y="17.835088"/></mask><mask id="h" fill="#fff"><use fill="#fff" fill-rule="evenodd" xlink:href="#f"/></mask></defs><g fill="none" fill-rule="evenodd" filter="url(#a)" transform="translate(2)"><path d="m64.5377163 0h290.9245677c5.685315 0 10.294174 4.60885861 10.294174 10.2941738v204.5023172h-311.5129156v-204.5023172c0-5.68531519 4.6088586-10.2941738 10.2941739-10.2941738z" fill="#1c1f24"/><path d="m1.71611321 207.817544h415.79329979c.947552 0 1.715696.768143 1.715696 1.715695v1.463565c0 .947553-.768144 1.715696-1.715696 1.715696h-415.79329979c-.94755254 0-1.71569564-.768143-1.71569564-1.715696v-1.463565c0-.947552.7681431-1.715695 1.71569564-1.715695z" fill="#c9c9c9" transform="matrix(1 0 0 -1 0 420.530044)"/><path d="m.84447254 212.7125h417.58455746c.091502.284389-.10277.475061-.582814.572015-12.594469 2.543701-23.844481 3.917806-31.870635 4.862727-8.485035.998946-25.245526 1.949865-50.281472 2.852758h-241.742846c-13.1161978-.070352-34.2893055-1.021272-63.5193233-2.852758-14.2641456-.893758-19.7655312-2.51098-28.58706577-4.208015-.89350322-.171887-1.22697035-.580796-1.00040139-1.226727z" fill="url(#b)"/><rect fill="url(#c)" height="4.297974" rx="2.148987" width="71.291513" x="174.242209" y="208.021923"/><rect fill="url(#d)" filter="url(#e)" height="285.361404" mask="url(#g)" rx="2.324723" width="374.280443" x="34.095941" y="-57.382456"/><g transform="translate(158.421053 68.141667)"><use fill="#47a9f1" xlink:href="#f"/><path d="m52.216314 92.2793443 6.9194583-7.6661689 12.828038-39.7857539-39.6397755.2364927 12.5981811 39.3173604 6.6437547 7.8869484c.1535355.1822654.4257561.2055556.6080215.0520201.0150217-.0126539.0291619-.0263186.0423219-.0408988z" fill="#8dccfc" mask="url(#h)"/><path d="m32.3425468 45.5322312 19.8414081-26.5869639-35.1018314-4.7544487z" fill="#bfe2f7" mask="url(#h)"/><path d="m71.7175468 45.0457847-19.8854554-25.7606246-19.4346639 26.2346226z" fill="#75c1ff" mask="url(#h)"/><path d="m67.1515056 45.5074895 19.8946836-26.022791-34.9639253-5.395782z" fill="#4baef7" mask="url(#h)" transform="matrix(-1 0 0 1 139.128454 0)"/><path d="m72.5870872 45.6209233 32.4119558-15.1559237-18.4778167-16.2245818z" fill="#6ebeff" mask="url(#h)" transform="matrix(.99939083 .0348995 -.0348995 .99939083 1.098656 -3.0806)"/><path d="m-.0187717 45.6063 31.5739316-15.4279364-17.6397925-15.9525692z" fill="#87cbff" mask="url(#h)" transform="matrix(-.99939083 .0348995 .0348995 .99939083 30.482727 -.532078)"/><path d="m34.891515 18.2881342h-4.3826087z" fill="#fff" mask="url(#h)" transform="matrix(.99026807 .1391731 -.1391731 .99026807 2.884778 -4.677981)"/><path d="m87.0461892 14.1908186 4.2001011-3.8848624 14.4974687 22.1875143z" fill="#389be3" mask="url(#h)"/><path d="m13.4441976 10.1097002 3.778575 4.1549241 34.5941951 5.2779445 35.3627118-5.3844595 4.1390408-4.0081514-23.1401397-10.1499579h-32.6145807z" fill="#7ec7ff" mask="url(#h)"/></g></g></svg>